<svg width="19" height="33" viewBox="0 0 19 33" fill="none" xmlns="http://www.w3.org/2000/svg">
<path d="M9.48156 17.0314C11.1592 17.0328 12.7996 16.5346 14.1951 15.5997C15.5907 14.6649 16.6788 13.3354 17.3218 11.7795C17.9648 10.2236 18.1338 8.51113 17.8073 6.85877C17.4809 5.20641 16.6738 3.68839 15.488 2.49673C14.3022 1.30507 12.7911 0.493317 11.1458 0.164155C9.50053 -0.165006 7.79497 0.00321479 6.2449 0.647537C4.69484 1.29186 3.36991 2.38334 2.43772 3.78389C1.50553 5.18445 1.00796 6.83115 1.00796 8.51571C1.00984 10.7724 1.90297 12.9362 3.49147 14.5326C5.07996 16.129 7.23414 17.0276 9.48156 17.0314ZM9.48156 4.99197C10.1764 4.99055 10.856 5.19615 11.4345 5.58274C12.0129 5.96934 12.4641 6.51954 12.731 7.16373C12.9979 7.80792 13.0684 8.51713 12.9337 9.20161C12.799 9.88608 12.4651 10.515 11.9743 11.0089C11.4835 11.5028 10.8578 11.8393 10.1764 11.9759C9.49502 12.1126 8.78858 12.0432 8.14649 11.7765C7.50441 11.5098 6.95554 11.0579 6.56936 10.4778C6.18318 9.89783 5.97704 9.2158 5.97704 8.5181C5.97704 7.58415 6.34604 6.68835 7.00306 6.02728C7.66008 5.3662 8.55145 4.99386 9.48156 4.99197Z" fill="#CDCDCD"/>
<path d="M12.9195 23.9786C14.6621 23.5778 16.325 22.8854 17.8387 21.9303C18.3967 21.5773 18.7922 21.0161 18.9383 20.3703C19.0843 19.7245 18.9688 19.0469 18.6173 18.4865C18.4432 18.209 18.2164 17.9687 17.9499 17.7793C17.6833 17.5898 17.3822 17.455 17.0638 17.3824C16.4206 17.2357 15.7457 17.3517 15.1877 17.7046C13.4767 18.7789 11.4994 19.3485 9.48156 19.3485C7.46366 19.3485 5.48641 18.7789 3.77543 17.7046C3.21763 17.3641 2.54873 17.2576 1.91338 17.4083C1.27803 17.559 0.727274 17.9547 0.380205 18.51C0.0331359 19.0652 -0.0823589 19.7353 0.0586937 20.3753C0.199746 21.0153 0.586011 21.5739 1.13397 21.9303C2.64925 22.8855 4.31379 23.578 6.05788 23.9786L1.30278 28.739C0.836787 29.2072 0.575123 29.8422 0.575346 30.5041C0.575568 31.1661 0.83766 31.8008 1.30396 32.2687C1.77027 32.7366 2.40259 32.9994 3.06182 32.9992C3.72105 32.9989 4.35319 32.7358 4.81917 32.2675L9.48156 27.5883L14.1416 32.2675C14.6075 32.7361 15.2398 32.9996 15.8993 33C16.5587 33.0004 17.1913 32.7378 17.658 32.2699C18.1246 31.802 18.387 31.1671 18.3874 30.505C18.3879 29.8428 18.1263 29.2076 17.6603 28.739L12.9195 23.9786Z" fill="#CDCDCD"/>
</svg>
