<svg width="28" height="28" viewBox="0 0 28 28" fill="none" xmlns="http://www.w3.org/2000/svg">
<path d="M14 2.52646C17.7412 2.52646 18.1849 2.54154 19.6625 2.60831C20.5524 2.61836 21.434 2.78157 22.2686 3.09077C22.8724 3.32422 23.4207 3.6815 23.8781 4.13963C24.3354 4.59776 24.6918 5.14658 24.9243 5.75077C25.2356 6.58358 25.4017 7.46363 25.4154 8.35262C25.4822 9.83015 25.4972 10.2738 25.4972 14.0151C25.4972 17.7563 25.4822 18.2 25.4154 19.6775C25.4045 20.566 25.2413 21.4461 24.9329 22.2794C24.6993 22.8833 24.3419 23.4317 23.8838 23.8895C23.4258 24.3472 22.8771 24.7041 22.2729 24.9372C21.4366 25.2451 20.5536 25.4068 19.6625 25.4154C18.1849 25.4822 17.7412 25.4972 14 25.4972C10.2588 25.4972 9.81508 25.4822 8.33754 25.4154C7.44906 25.4045 6.56903 25.2413 5.73569 24.9329C5.13109 24.7 4.582 24.3429 4.12385 23.8848C3.66569 23.4266 3.30864 22.8775 3.07569 22.2729C2.76489 21.4415 2.5988 20.5629 2.58462 19.6754C2.51785 18.1978 2.50277 17.7542 2.50277 14.0129C2.50277 10.2717 2.51785 9.828 2.58462 8.35046C2.59555 7.46198 2.75873 6.58195 3.06708 5.74862C3.30097 5.14317 3.65935 4.59357 4.11904 4.13536C4.57873 3.67715 5.12949 3.32055 5.73569 3.08862C6.56903 2.78027 7.44906 2.61709 8.33754 2.60615C9.81508 2.53938 10.2588 2.52431 14 2.52431V2.52646ZM14 0C10.1942 0 9.716 0.0150769 8.22338 0.084C7.06144 0.106298 5.91162 0.324757 4.82246 0.730154C3.89336 1.09035 3.04956 1.64032 2.34494 2.34494C1.64032 3.04956 1.09035 3.89336 0.730154 4.82246C0.324597 5.91157 0.106133 7.06142 0.084 8.22338C0.0150769 9.71815 0 10.1942 0 14C0 17.8058 0.0150769 18.284 0.084 19.7766C0.106133 20.9386 0.324597 22.0884 0.730154 23.1775C1.09035 24.1066 1.64032 24.9504 2.34494 25.6551C3.04956 26.3597 3.89336 26.9096 4.82246 27.2698C5.91162 27.6752 7.06144 27.8937 8.22338 27.916C9.71815 27.9849 10.1942 28 14 28C17.8058 28 18.284 27.9849 19.7766 27.916C20.9386 27.8937 22.0884 27.6752 23.1775 27.2698C24.1066 26.9096 24.9504 26.3597 25.6551 25.6551C26.3597 24.9504 26.9096 24.1066 27.2698 23.1775C27.6754 22.0884 27.8939 20.9386 27.916 19.7766C27.9849 18.2818 28 17.8037 28 14C28 10.1963 27.9849 9.716 27.916 8.22338C27.8939 7.06142 27.6754 5.91157 27.2698 4.82246C26.9096 3.89336 26.3597 3.04956 25.6551 2.34494C24.9504 1.64032 24.1066 1.09035 23.1775 0.730154C22.0884 0.324757 20.9386 0.106298 19.7766 0.084C18.2818 0.0150769 17.8058 0 14 0Z" fill="#CDCDCD"/>
<path d="M14 6.81908C12.5766 6.81737 11.1846 7.23785 10.0002 8.02733C8.81581 8.81681 7.89213 9.93982 7.34604 11.2543C6.79994 12.5688 6.65596 14.0157 6.93229 15.4121C7.20863 16.8084 7.89287 18.0914 8.89848 19.0988C9.90408 20.1063 11.1859 20.7928 12.5817 21.0716C13.9775 21.3505 15.4247 21.2091 16.7402 20.6654C18.0557 20.1216 19.1803 19.2 19.9719 18.017C20.7636 16.834 21.1865 15.4428 21.1874 14.0194C21.1885 12.1116 20.4321 10.2815 19.0843 8.9313C17.7365 7.58111 15.9078 6.82136 14 6.81908ZM14 18.6868C13.0758 18.6876 12.1722 18.4144 11.4034 17.9015C10.6346 17.3887 10.0351 16.6594 9.68085 15.8058C9.3266 14.9523 9.23347 14.0128 9.41324 13.1063C9.59301 12.1998 10.0376 11.367 10.6908 10.7132C11.344 10.0594 12.1764 9.61407 13.0827 9.43347C13.989 9.25286 14.9286 9.34512 15.7825 9.69859C16.6364 10.052 17.3662 10.6508 17.8798 11.4192C18.3933 12.1875 18.6674 13.0909 18.6674 14.0151C18.6668 15.253 18.175 16.44 17.2998 17.3155C16.4247 18.1911 15.2379 18.6835 14 18.6846V18.6868Z" fill="#CDCDCD"/>
<path d="M21.476 8.21692C22.405 8.21692 23.1582 7.4638 23.1582 6.53477C23.1582 5.60574 22.405 4.85262 21.476 4.85262C20.547 4.85262 19.7938 5.60574 19.7938 6.53477C19.7938 7.4638 20.547 8.21692 21.476 8.21692Z" fill="#CDCDCD"/>
</svg>
