<svg width="40" height="23" viewBox="0 0 40 23" fill="none" xmlns="http://www.w3.org/2000/svg">
<path d="M19.5753 22.9013H21.9663C21.9663 22.9013 22.6871 22.8211 23.0575 22.4202C23.289 22.1187 23.4054 21.7435 23.3856 21.3628C23.3856 21.3628 23.3384 18.1304 24.8272 17.6518C26.316 17.1732 28.1802 20.7764 30.1761 22.1621C31.6873 23.207 32.8331 22.979 32.8331 22.979L38.1745 22.9038C38.1745 22.9038 40.9683 22.7309 39.6435 20.5158C39.5341 20.3354 38.8705 18.8771 35.6666 15.8828C32.3111 12.7481 32.766 13.2568 36.8 7.8344C39.2706 4.53187 40.235 2.50976 39.9393 1.64528C39.646 0.823409 37.839 1.0389 37.839 1.0389L31.814 1.07649C31.5478 1.04622 31.2785 1.09407 31.0385 1.2143C30.8108 1.38338 30.6287 1.60739 30.5091 1.86579C29.8876 3.4972 29.1474 5.08011 28.2945 6.60159C25.6201 11.1845 24.5488 11.4176 24.1089 11.1419C23.0898 10.4779 23.3458 8.47587 23.3458 7.05512C23.3458 2.61249 24.0144 0.760767 22.0434 0.289692C21.3922 0.131832 20.91 0.0265918 19.2397 0.00404041C17.0947 -0.0134996 15.2778 0.0040404 14.2487 0.522724C13.5652 0.860995 13.0358 1.61271 13.3589 1.65531C13.7566 1.70793 14.6564 1.90588 15.1336 2.55486C15.75 3.39929 15.7276 5.31115 15.7276 5.31115C15.7276 5.31115 16.0806 10.528 14.9124 11.177C14.1021 11.623 12.9886 10.7135 10.6025 6.55398C9.78959 5.10737 9.07059 3.60915 8.44999 2.06875C8.33865 1.80738 8.16845 1.57575 7.95289 1.39221C7.67084 1.20219 7.35393 1.07098 7.02081 1.00633L1.30408 1.04391C1.30408 1.04391 0.446568 1.07899 0.130905 1.45485C-0.149961 1.79062 0.108535 2.48219 0.108535 2.48219C0.108535 2.48219 4.5825 13.0338 9.64802 18.3534C14.2935 23.2295 19.5678 22.9088 19.5678 22.9088L19.5753 22.9013Z" fill="#CDCDCD"/>
</svg>
