<svg width="27" height="33" viewBox="0 0 27 33" fill="none" xmlns="http://www.w3.org/2000/svg">
<path d="M22.5401 21.6679C21.9961 21.6679 21.7233 22.089 21.7217 22.931V23.7723H23.3491V22.9382C23.3491 22.0874 23.0802 21.6679 22.5401 21.6679Z" fill="#CDCDCD"/>
<path d="M26.5283 17.0422C26.3771 16.3446 26.0152 15.7116 25.4925 15.2309C24.9699 14.7502 24.3124 14.4454 23.6108 14.3587C20.2618 13.9798 16.875 13.9798 13.5 13.9798C10.125 13.9798 6.73585 13.9798 3.38915 14.3587C2.68795 14.4452 2.03064 14.7497 1.50803 15.2299C0.985425 15.7102 0.623305 16.3426 0.471698 17.0398C0 19.106 0 21.3605 0 23.4887C0 25.6169 0 27.8833 0.471698 29.9376C0.622231 30.6355 0.983965 31.2688 1.50673 31.7497C2.0295 32.2305 2.68738 32.5351 3.38915 32.6211C6.73585 33 10.125 33 13.5 33C16.875 33 20.2618 33 23.6108 32.6211C24.3121 32.5345 24.9694 32.2301 25.492 31.7498C26.0146 31.2696 26.3767 30.6372 26.5283 29.94C27 27.8738 27 25.6193 27 23.4911C27 21.3629 27 19.1084 26.5283 17.0422ZM7.69576 18.9011H5.74764V29.3871H3.93396V18.9011H2.01415V17.1828H7.70283L7.69576 18.9011ZM12.625 29.3871H10.9929V28.3933C10.3443 29.1464 9.72877 29.511 9.12972 29.511C8.60377 29.511 8.24292 29.2941 8.07783 28.8342C7.9641 28.3926 7.91562 27.9365 7.93396 27.4805V20.2952H9.56604V26.9896C9.55658 27.2034 9.56131 27.4175 9.58019 27.6307C9.62028 27.8857 9.74292 28.0168 9.96226 28.0168C10.2901 28.0168 10.6321 27.7618 10.9929 27.2446V20.2952H12.625V29.3871ZM18.8231 26.656C18.845 27.2714 18.7895 27.8872 18.658 28.4886C18.441 29.1655 18.0047 29.511 17.3538 29.511C16.7736 29.511 16.2123 29.1845 15.6675 28.5029V29.3847H14.0354V17.1828H15.6675V21.1699C16.1934 20.5145 16.7547 20.1832 17.3538 20.1832C18.0047 20.1832 18.441 20.5288 18.658 21.2104C18.7918 21.8106 18.8473 22.4259 18.8231 23.0407V26.656ZM24.9811 25.1379H21.7193V26.7513C21.7193 27.5925 21.9929 28.0144 22.5519 28.0144C22.9528 28.0144 23.1887 27.7927 23.2807 27.3518C23.3113 26.9801 23.3231 26.6071 23.316 26.2341H24.9811V26.4725C24.9811 27.0039 24.9599 27.3685 24.9458 27.5354C24.8945 27.8894 24.7638 28.2268 24.5637 28.522C24.3456 28.8433 24.0496 29.1027 23.704 29.2754C23.3584 29.4482 22.9747 29.5285 22.5896 29.5086C22.2103 29.5276 21.8322 29.4526 21.4882 29.2902C21.1441 29.1278 20.8446 28.8829 20.6156 28.5768C20.2689 28.1216 20.092 27.4043 20.092 26.4319V23.2599C20.092 22.2876 20.25 21.575 20.5967 21.115C20.8233 20.8111 21.1197 20.5674 21.4604 20.405C21.801 20.2427 22.1756 20.1666 22.5519 20.1832C22.9237 20.1671 23.2937 20.2437 23.6293 20.4062C23.965 20.5687 24.2559 20.8121 24.4764 21.115C24.8184 21.575 24.9811 22.2876 24.9811 23.2599V25.1379Z" fill="#CDCDCD"/>
<path d="M16.4858 21.6679C16.3308 21.6772 16.1791 21.7174 16.0395 21.7861C15.8998 21.8548 15.775 21.9507 15.6722 22.0683V27.614C15.7746 27.7325 15.8993 27.8293 16.0389 27.8988C16.1786 27.9683 16.3305 28.0092 16.4858 28.0191C16.9575 28.0191 17.1934 27.614 17.1934 26.7918V22.9096C17.1958 22.0874 16.9552 21.6679 16.4858 21.6679Z" fill="#CDCDCD"/>
<path d="M10.6698 0H8.81368L7.5684 4.84264L6.27123 0H4.34906C4.73349 1.14393 5.13443 2.29263 5.5283 3.43656C5.98611 4.7103 6.3588 6.01366 6.64387 7.33784V12.3425H8.4717V7.33784L10.6698 0ZM15.566 9.35401V6.13671C15.566 5.15484 15.3986 4.4375 15.0542 3.97039C14.6529 3.45569 14.0657 3.12312 13.4217 3.04581C12.7778 2.96849 12.1298 3.15276 11.6203 3.5581C11.4688 3.67898 11.3319 3.81735 11.2123 3.97039C10.8608 4.44703 10.6958 5.16198 10.6958 6.13671V9.35401C10.6958 10.3311 10.8608 11.0556 11.2123 11.5156C11.6136 12.0303 12.2008 12.3628 12.8448 12.4401C13.4887 12.5175 14.1367 12.3332 14.6462 11.9279C14.7971 11.8063 14.934 11.668 15.0542 11.5156C15.3892 11.058 15.566 10.3335 15.566 9.35401ZM13.9151 9.66621C13.9151 10.517 13.6604 10.9412 13.1297 10.9412C12.5991 10.9412 12.342 10.5146 12.342 9.66621V5.80306C12.342 4.95226 12.5967 4.53044 13.1297 4.53044C13.6627 4.53044 13.9151 4.95226 13.9151 5.80306V9.66621ZM21.6486 12.3282V3.14104H19.9976V10.1643C19.6321 10.6862 19.2901 10.9436 18.9575 10.9436C18.7358 10.9436 18.6085 10.8125 18.5708 10.5528C18.5468 10.3376 18.5405 10.1208 18.5519 9.90453V3.14104H16.9009V10.4098C16.8822 10.8698 16.9315 11.33 17.0472 11.7753C17.2123 12.252 17.5778 12.4593 18.1085 12.4593C18.7099 12.4593 19.3349 12.0899 19.9953 11.3297V12.333L21.6486 12.3282Z" fill="#CDCDCD"/>
</svg>
